<svg xmlns="http://www.w3.org/2000/svg" version="1.1" xmlns:xlink="http://www.w3.org/1999/xlink" xmlns:svgjs="http://svgjs.dev/svgjs" width="1000" height="1000" viewBox="0 0 1000 1000"><g transform="matrix(1,0,0,1,-0.14221556886212738,-0.14221556886229791)"><svg viewBox="0 0 334 334" data-background-color="#fdf8f1" preserveAspectRatio="xMidYMid meet" height="1000" width="1000" xmlns="http://www.w3.org/2000/svg" xmlns:xlink="http://www.w3.org/1999/xlink"><g id="tight-bounds" transform="matrix(1,0,0,1,0.04749999999998522,0.04750000000001364)"><svg viewBox="0 0 333.90454557049503 333.90454557049503" height="333.90454557049503" width="333.90454557049503"><g><svg></svg></g><g><svg viewBox="0 0 333.90454557049503 333.90454557049503" height="333.90454557049503" width="333.90454557049503"><g><path d="M0 166.952c0-92.205 74.747-166.952 166.952-166.952 92.205 0 166.952 74.747 166.953 166.952 0 92.205-74.747 166.952-166.953 166.953-92.205 0-166.952-74.747-166.952-166.953zM166.952 325.35c87.481 0 158.398-70.917 158.398-158.398 0-87.481-70.917-158.398-158.398-158.398-87.481 0-158.398 70.917-158.398 158.398 0 87.481 70.917 158.398 158.398 158.398z" data-fill-palette-color="tertiary" fill="#fa4238" stroke="transparent"></path><ellipse rx="160.27418187383762" ry="160.27418187383762" cx="166.95227278524752" cy="166.95227278524752" fill="#fa4238" stroke="transparent" stroke-width="0" fill-opacity="1" data-fill-palette-color="tertiary"></ellipse></g><g transform="matrix(1,0,0,1,69.12905411122885,71.17305217166896)"><svg viewBox="0 0 195.64643734803732 191.55844122715712" height="191.55844122715712" width="195.64643734803732"><g><svg viewBox="0 0 195.64643734803732 191.55844122715712" height="191.55844122715712" width="195.64643734803732"><g><svg viewBox="0 0 213.1584412271571 208.70453502430934" height="191.55844122715712" width="195.64643734803732"><g transform="matrix(1,0,0,1,0,105.3549877626574)"><svg viewBox="0 0 213.1584412271571 103.34954726165192" height="103.34954726165192" width="213.1584412271571"><g id="textblocktransform"><svg viewBox="0 0 213.1584412271571 103.34954726165192" height="103.34954726165192" width="213.1584412271571" id="textblock"><g><svg viewBox="0 0 213.1584412271571 103.34954726165192" height="103.34954726165192" width="213.1584412271571"><g transform="matrix(1,0,0,1,0,0)"><svg width="213.1584412271571" viewBox="2.3 -36 74.25 36" height="103.34954726165192" data-palette-color="#fdf8f1"><path d="M38.15-33.6L33.95-32.55 33.95-3.45 38.15-2.4 38.15 0 24.25 0 24.25-2.4 28.45-3.45 28.45-16.9 12-16.9 12-3.45 16.2-2.4 16.2 0 2.3 0 2.3-2.4 6.5-3.45 6.5-32.55 2.3-33.6 2.3-36 16.2-36 16.2-33.6 12-32.55 12-20.05 28.45-20.05 28.45-32.55 24.25-33.6 24.25-36 38.15-36 38.15-33.6ZM53.85-33.6L49.75-32.55 59.25-4.75 59.45-4.75 68.5-32.55 64.35-33.6 64.35-36 76.55-36 76.55-33.6 72.45-32.55 61.3 0 55.9 0 43.85-32.55 39.85-33.6 39.85-36 53.85-36 53.85-33.6Z" opacity="1" transform="matrix(1,0,0,1,0,0)" fill="#fdf8f1" class="wordmark-text-0" data-fill-palette-color="quaternary" id="text-0"></path></svg></g></svg></g></svg></g></svg></g><g transform="matrix(1,0,0,1,40.713262274387006,0)"><svg viewBox="0 0 131.7319166783831 80.95664004331566" height="80.95664004331566" width="131.7319166783831"><g><svg xmlns="http://www.w3.org/2000/svg" data-name="Layer 1" viewBox="2.430551295781235 20.791724898981606 95.13905147020833 58.4682751010184" x="0" y="0" height="80.95664004331566" width="131.7319166783831" class="icon-icon-0" data-fill-palette-color="quaternary" id="icon-0"><path d="M62.78 23l32 55.42 1.3-2.26h-64l1.3 2.26L65.37 23a1.5 1.5 0 0 0-2.59-1.51L30.79 77a1.51 1.51 0 0 0 1.3 2.26h64A1.51 1.51 0 0 0 97.37 77l-32-55.42A1.5 1.5 0 0 0 62.78 23Z" fill="#fdf8f1" data-fill-palette-color="quaternary"></path><path d="M34.63 23l32 55.42 1.3-2.26h-64l1.3 2.26L37.22 23a1.5 1.5 0 0 0-2.59-1.51L2.63 77a1.51 1.51 0 0 0 1.3 2.26h64A1.51 1.51 0 0 0 69.21 77l-32-55.42A1.5 1.5 0 0 0 34.63 23Z" fill="#fdf8f1" data-fill-palette-color="quaternary"></path></svg></g></svg></g><g></g></svg></g></svg></g></svg></g></svg></g><defs></defs></svg><rect width="333.90454557049503" height="333.90454557049503" fill="none" stroke="none" visibility="hidden"></rect></g></svg></g></svg>